<mxfile host="app.diagrams.net" modified="2023-05-22T15:35:23.573Z" agent="Mozilla/5.0 (Windows NT 10.0; Win64; x64) AppleWebKit/537.36 (KHTML, like Gecko) Chrome/113.0.0.0 Safari/537.36 Edg/113.0.1774.42" etag="uh7Ui06ockaLTf2FbmVn" version="21.3.2" type="github">
  <diagram name="第 1 页" id="0RWUCb3NDBiG32bfnFAY">
    <mxGraphModel dx="1379" dy="796" grid="1" gridSize="10" guides="1" tooltips="1" connect="1" arrows="1" fold="1" page="1" pageScale="1" pageWidth="827" pageHeight="1169" math="0" shadow="0">
      <root>
        <mxCell id="0" />
        <mxCell id="1" parent="0" />
        <mxCell id="xRnoi6SaJb90MK3y-hoX-1" value="&lt;font style=&quot;font-size: 24px;&quot;&gt;a&lt;/font&gt;" style="ellipse;whiteSpace=wrap;html=1;aspect=fixed;strokeWidth=5;strokeColor=#10739e;shadow=0;opacity=80;snapToPoint=1;fixDash=0;metaEdit=0;backgroundOutline=0;fillColor=#b1ddf0;" vertex="1" parent="1">
          <mxGeometry x="210" y="180" width="80" height="80" as="geometry" />
        </mxCell>
        <mxCell id="xRnoi6SaJb90MK3y-hoX-2" value="&lt;font style=&quot;font-size: 24px;&quot;&gt;d&lt;/font&gt;" style="ellipse;whiteSpace=wrap;html=1;aspect=fixed;strokeWidth=5;strokeColor=#10739e;shadow=0;opacity=80;snapToPoint=1;fixDash=0;metaEdit=0;backgroundOutline=0;fillColor=#b1ddf0;" vertex="1" parent="1">
          <mxGeometry x="490" y="390" width="80" height="80" as="geometry" />
        </mxCell>
        <mxCell id="xRnoi6SaJb90MK3y-hoX-3" value="&lt;font style=&quot;font-size: 24px;&quot;&gt;e&lt;/font&gt;" style="ellipse;whiteSpace=wrap;html=1;aspect=fixed;strokeWidth=5;strokeColor=#10739e;shadow=0;opacity=80;snapToPoint=1;fixDash=0;metaEdit=0;backgroundOutline=0;fillColor=#b1ddf0;" vertex="1" parent="1">
          <mxGeometry x="210" y="390" width="80" height="80" as="geometry" />
        </mxCell>
        <mxCell id="xRnoi6SaJb90MK3y-hoX-4" value="&lt;font style=&quot;font-size: 24px;&quot;&gt;c&lt;/font&gt;" style="ellipse;whiteSpace=wrap;html=1;aspect=fixed;strokeWidth=5;strokeColor=#10739e;shadow=0;opacity=80;snapToPoint=1;fixDash=0;metaEdit=0;backgroundOutline=0;fillColor=#b1ddf0;" vertex="1" parent="1">
          <mxGeometry x="490" y="180" width="80" height="80" as="geometry" />
        </mxCell>
        <mxCell id="xRnoi6SaJb90MK3y-hoX-5" value="" style="endArrow=classic;html=1;rounded=0;exitX=1;exitY=0.5;exitDx=0;exitDy=0;entryX=0;entryY=0.5;entryDx=0;entryDy=0;strokeWidth=5;strokeColor=#10739e;shadow=0;opacity=80;snapToPoint=1;fixDash=0;metaEdit=0;backgroundOutline=0;endFill=1;startArrow=none;startFill=0;fillColor=#b1ddf0;" edge="1" parent="1">
          <mxGeometry width="50" height="50" relative="1" as="geometry">
            <mxPoint x="290" y="219.5" as="sourcePoint" />
            <mxPoint x="490.0000000000002" y="219.5" as="targetPoint" />
            <Array as="points">
              <mxPoint x="350" y="219.5" />
            </Array>
          </mxGeometry>
        </mxCell>
        <mxCell id="xRnoi6SaJb90MK3y-hoX-6" value="" style="endArrow=none;html=1;rounded=0;entryX=0;entryY=1;entryDx=0;entryDy=0;strokeWidth=5;strokeColor=#10739e;shadow=0;opacity=80;snapToPoint=1;fixDash=0;metaEdit=0;backgroundOutline=0;endFill=0;fillColor=#b1ddf0;startArrow=classic;startFill=1;exitX=1;exitY=0;exitDx=0;exitDy=0;" edge="1" parent="1" source="xRnoi6SaJb90MK3y-hoX-3">
          <mxGeometry width="50" height="50" relative="1" as="geometry">
            <mxPoint x="274.5" y="397" as="sourcePoint" />
            <mxPoint x="497.7157287525381" y="243.28427124746167" as="targetPoint" />
          </mxGeometry>
        </mxCell>
        <mxCell id="xRnoi6SaJb90MK3y-hoX-7" value="" style="endArrow=classic;html=1;rounded=0;exitX=1;exitY=0;exitDx=0;exitDy=0;strokeWidth=5;strokeColor=#10739e;shadow=0;opacity=80;snapToPoint=1;fixDash=0;metaEdit=0;backgroundOutline=0;endFill=1;fillColor=#b1ddf0;startArrow=none;startFill=0;" edge="1" parent="1" source="xRnoi6SaJb90MK3y-hoX-1">
          <mxGeometry width="50" height="50" relative="1" as="geometry">
            <mxPoint x="280.00427124746193" y="250.0042712474619" as="sourcePoint" />
            <mxPoint x="350" y="110" as="targetPoint" />
          </mxGeometry>
        </mxCell>
        <mxCell id="xRnoi6SaJb90MK3y-hoX-8" value="" style="endArrow=classic;html=1;rounded=0;exitX=0.5;exitY=1;exitDx=0;exitDy=0;entryX=0.5;entryY=0;entryDx=0;entryDy=0;strokeWidth=5;strokeColor=#10739e;shadow=0;opacity=80;snapToPoint=1;fixDash=0;metaEdit=0;backgroundOutline=0;endFill=1;startArrow=none;startFill=0;fillColor=#b1ddf0;" edge="1" parent="1">
          <mxGeometry width="50" height="50" relative="1" as="geometry">
            <mxPoint x="249.5" y="260" as="sourcePoint" />
            <mxPoint x="249.5" y="390" as="targetPoint" />
          </mxGeometry>
        </mxCell>
        <mxCell id="xRnoi6SaJb90MK3y-hoX-9" value="" style="endArrow=classic;html=1;rounded=0;exitX=0.5;exitY=1;exitDx=0;exitDy=0;strokeWidth=5;strokeColor=#10739e;shadow=0;opacity=80;snapToPoint=1;fixDash=0;metaEdit=0;backgroundOutline=0;endFill=1;startArrow=none;startFill=0;fillColor=#b1ddf0;" edge="1" parent="1">
          <mxGeometry width="50" height="50" relative="1" as="geometry">
            <mxPoint x="529.5" y="260" as="sourcePoint" />
            <mxPoint x="529.5" y="390" as="targetPoint" />
          </mxGeometry>
        </mxCell>
        <mxCell id="xRnoi6SaJb90MK3y-hoX-10" value="&lt;font style=&quot;font-size: 24px;&quot;&gt;有向图G&lt;/font&gt;" style="rounded=0;whiteSpace=wrap;html=1;fillColor=#b1ddf0;strokeColor=#10739e;" vertex="1" parent="1">
          <mxGeometry x="320" y="480" width="150" height="60" as="geometry" />
        </mxCell>
        <mxCell id="xRnoi6SaJb90MK3y-hoX-11" value="&lt;font style=&quot;font-size: 24px;&quot;&gt;b&lt;/font&gt;" style="ellipse;whiteSpace=wrap;html=1;aspect=fixed;strokeWidth=5;strokeColor=#10739e;shadow=0;opacity=80;snapToPoint=1;fixDash=0;metaEdit=0;backgroundOutline=0;fillColor=#b1ddf0;" vertex="1" parent="1">
          <mxGeometry x="350" y="70" width="80" height="80" as="geometry" />
        </mxCell>
        <mxCell id="xRnoi6SaJb90MK3y-hoX-12" value="" style="endArrow=classic;html=1;rounded=0;exitX=1;exitY=0.5;exitDx=0;exitDy=0;strokeWidth=5;strokeColor=#10739e;shadow=0;opacity=80;snapToPoint=1;fixDash=0;metaEdit=0;backgroundOutline=0;endFill=1;startArrow=none;startFill=0;fillColor=#b1ddf0;entryX=0;entryY=0;entryDx=0;entryDy=0;" edge="1" parent="1" target="xRnoi6SaJb90MK3y-hoX-4">
          <mxGeometry width="50" height="50" relative="1" as="geometry">
            <mxPoint x="430" y="109.5" as="sourcePoint" />
            <mxPoint x="630" y="110" as="targetPoint" />
            <Array as="points" />
          </mxGeometry>
        </mxCell>
        <mxCell id="xRnoi6SaJb90MK3y-hoX-13" value="" style="endArrow=none;html=1;rounded=0;entryX=0;entryY=0.5;entryDx=0;entryDy=0;strokeWidth=5;strokeColor=#10739e;shadow=0;opacity=80;snapToPoint=1;fixDash=0;metaEdit=0;backgroundOutline=0;endFill=0;fillColor=#b1ddf0;startArrow=classic;startFill=1;exitX=1;exitY=0;exitDx=0;exitDy=0;" edge="1" parent="1" target="xRnoi6SaJb90MK3y-hoX-2">
          <mxGeometry width="50" height="50" relative="1" as="geometry">
            <mxPoint x="290" y="428.72" as="sourcePoint" />
            <mxPoint x="509.7157287525381" y="270.0042712474617" as="targetPoint" />
          </mxGeometry>
        </mxCell>
      </root>
    </mxGraphModel>
  </diagram>
</mxfile>
